<svg width="16" height="16" viewBox="0 0 16 16" fill="none" xmlns="http://www.w3.org/2000/svg">
<path d="M14.5066 13.9866L12.3866 11.8666C13.3999 10.7333 14.0399 9.22662 14.0399 7.59995C14.0533 4.07995 11.1733 1.19995 7.65327 1.19995C4.13327 1.19995 1.2666 4.07995 1.2666 7.58662C1.2666 11.0933 4.1466 13.9733 7.65327 13.9733C9.1066 13.9733 10.4666 13.48 11.5466 12.64L13.6933 14.7866C13.6933 14.8 14.5066 13.9866 14.5066 13.9866ZM2.4266 7.58662C2.4266 4.70662 4.7866 2.35995 7.65327 2.35995C10.5199 2.35995 12.8799 4.71995 12.8799 7.58662C12.8799 10.4533 10.5333 12.8266 7.65327 12.8266C4.77327 12.8266 2.4266 10.4666 2.4266 7.58662Z" fill="#0A84FF"/>
<path d="M11.92 7.67997H11.04L9.81337 4.42664L7.85337 8.79997L6.37337 5.62664L5.09337 8.90664H3.8667V10.0533H5.8667L6.4667 8.50664L7.89337 11.56L9.72003 7.4133L10.2667 8.8133H11.92V7.67997Z" fill="#0A84FF"/>
</svg>
