<svg width="60" height="60" viewBox="0 0 60 60" fill="none" xmlns="http://www.w3.org/2000/svg">
<g clip-path="url(#clip0_25_5407)">
<g filter="url(#filter0_d_25_5407)">
<path d="M41.4537 41.4518C38.7813 44.1229 35.1663 45.6369 31.388 45.6675C27.6096 45.6981 23.9706 44.2429 21.2552 41.6155L22.2915 40.5792C24.7325 42.928 27.9974 44.2255 31.3848 44.1929C34.7721 44.1603 38.0115 42.8002 40.4068 40.4049C42.8021 38.0096 44.1622 34.7702 44.1948 31.3829C44.2274 27.9955 42.9299 24.7306 40.5811 22.2896L41.6103 21.2533C44.2389 23.9677 45.6955 27.6062 45.6662 31.3846C45.6369 35.163 44.124 38.7785 41.4537 41.4518ZM28.9099 20.2755C28.4927 19.8582 28.4928 19.1817 28.9102 18.7646L32.582 15.095C32.9992 14.678 33.6754 14.6781 34.0924 15.0952L37.7621 18.7648C38.1791 19.1819 38.1792 19.8581 37.7623 20.2753L34.0927 23.9471C33.6755 24.3645 32.999 24.3646 32.5818 23.9473L28.9099 20.2755ZM38.1639 24.706C39.9113 26.4979 40.8823 28.9061 40.8665 31.4089C40.8508 33.9117 39.8497 36.3075 38.08 38.0773C36.3103 39.8471 33.9145 40.8484 31.4117 40.8642C28.909 40.8801 26.5007 39.9092 24.7087 38.162L25.745 37.1257C27.2667 38.5748 29.2946 39.3715 31.3957 39.3457C33.4969 39.3199 35.5046 38.4736 36.9903 36.9876C38.4759 35.5016 39.3216 33.4936 39.3468 31.3924C39.3721 29.2913 38.5748 27.2636 37.1253 25.7423L38.1639 24.706ZM21.5866 30.2234L22.6228 29.1872L23.6591 30.2234L22.6228 31.2597L23.9383 32.5771C24.3545 32.994 24.3547 33.6692 23.9387 34.0863L20.2769 37.7574C19.86 38.1754 19.1831 38.1759 18.7655 37.7586L15.0933 34.0887C14.6765 33.672 14.6758 32.9965 15.0918 32.5791L15.6838 31.985L18.7589 28.9099C19.1756 28.4932 19.8512 28.4927 20.2685 28.9089L21.5866 30.2234Z" fill="#333333"/>
<path d="M41.4537 41.4518C38.7813 44.1229 35.1663 45.6369 31.388 45.6675C27.6096 45.6981 23.9706 44.2429 21.2552 41.6155L22.2915 40.5792C24.7325 42.928 27.9974 44.2255 31.3848 44.1929C34.7721 44.1603 38.0115 42.8002 40.4068 40.4049C42.8021 38.0096 44.1622 34.7702 44.1948 31.3829C44.2274 27.9955 42.9299 24.7306 40.5811 22.2896L41.6103 21.2533C44.2389 23.9677 45.6955 27.6062 45.6662 31.3846C45.6369 35.163 44.124 38.7785 41.4537 41.4518ZM28.9099 20.2755C28.4927 19.8582 28.4928 19.1817 28.9102 18.7646L32.582 15.095C32.9992 14.678 33.6754 14.6781 34.0924 15.0952L37.7621 18.7648C38.1791 19.1819 38.1792 19.8581 37.7623 20.2753L34.0927 23.9471C33.6755 24.3645 32.999 24.3646 32.5818 23.9473L28.9099 20.2755ZM38.1639 24.706C39.9113 26.4979 40.8823 28.9061 40.8665 31.4089C40.8508 33.9117 39.8497 36.3075 38.08 38.0773C36.3103 39.8471 33.9145 40.8484 31.4117 40.8642C28.909 40.8801 26.5007 39.9092 24.7087 38.162L25.745 37.1257C27.2667 38.5748 29.2946 39.3715 31.3957 39.3457C33.4969 39.3199 35.5046 38.4736 36.9903 36.9876C38.4759 35.5016 39.3216 33.4936 39.3468 31.3924C39.3721 29.2913 38.5748 27.2636 37.1253 25.7423L38.1639 24.706ZM21.5866 30.2234L22.6228 29.1872L23.6591 30.2234L22.6228 31.2597L23.9383 32.5771C24.3545 32.994 24.3547 33.6692 23.9387 34.0863L20.2769 37.7574C19.86 38.1754 19.1831 38.1759 18.7655 37.7586L15.0933 34.0887C14.6765 33.672 14.6758 32.9965 15.0918 32.5791L15.6838 31.985L18.7589 28.9099C19.1756 28.4932 19.8512 28.4927 20.2685 28.9089L21.5866 30.2234Z" fill="url(#paint0_linear_25_5407)"/>
</g>
<g filter="url(#filter1_d_25_5407)">
<path d="M41.4533 41.4517C38.7809 44.1228 35.1659 45.6369 31.3876 45.6675C27.8585 45.6961 24.451 44.4284 21.8041 42.12C21.4952 41.8506 21.4924 41.3779 21.7823 41.0881C22.0649 40.8054 22.5204 40.8029 22.8234 41.0636C25.1965 43.1055 28.2376 44.2232 31.3844 44.1929C34.7718 44.1603 38.0112 42.8002 40.4065 40.4049C42.8018 38.0096 44.1619 34.7702 44.1945 31.3828C44.2248 28.2344 43.106 25.1918 41.062 22.8182C40.8027 22.517 40.8045 22.0643 41.0845 21.7823C41.3731 21.4918 41.8454 21.4937 42.1147 21.8022C44.4242 24.4482 45.6932 27.8554 45.6659 31.3846C45.6366 35.163 44.1237 38.7785 41.4533 41.4517ZM37.6353 25.2331C37.9261 24.943 38.4003 24.9445 38.6631 25.2602C40.0948 26.9793 40.8803 29.1558 40.8662 31.4089C40.8505 33.9116 39.8493 36.3074 38.0796 38.0773C36.3099 39.8471 33.9142 40.8484 31.4114 40.8642C29.1583 40.8785 26.9819 40.0931 25.2626 38.6616C24.9471 38.3988 24.9457 37.9246 25.2361 37.6342C25.519 37.3514 25.9738 37.3489 26.2869 37.5978C27.732 38.7465 29.535 39.3686 31.3954 39.3457C33.4965 39.3199 35.5043 38.4736 36.9899 36.9876C38.4755 35.5015 39.3213 33.4935 39.3465 31.3924C39.3688 29.5326 38.7467 27.7303 37.5983 26.2858C37.3488 25.9721 37.3515 25.5162 37.6353 25.2331Z" fill="url(#paint1_linear_25_5407)"/>
</g>
<g filter="url(#filter2_d_25_5407)">
<path d="M30.2294 21.591L31.2657 22.6273L30.2294 23.6635L33.9623 27.3964C34.3794 27.8136 34.3794 28.4899 33.9623 28.9071L31.955 30.9144L32.4729 31.4323C32.7592 31.7186 32.7592 32.1827 32.4729 32.469C32.1868 32.7551 31.723 32.7553 31.4366 32.4694L30.9171 31.9506L28.9097 33.9598C28.4926 34.3772 27.8162 34.3774 27.3988 33.9603L18.5442 25.1089C18.1269 24.6918 18.1268 24.0154 18.5441 23.5981L23.5979 18.5443C24.0151 18.1271 24.6914 18.1271 25.1086 18.5443L29.1877 22.6233L30.2271 21.591H30.2294Z" fill="url(#paint2_linear_25_5407)"/>
</g>
</g>
<defs>
<filter id="filter0_d_25_5407" x="-10.8566" y="-6.58175" width="73.6147" height="73.6138" filterUnits="userSpaceOnUse" color-interpolation-filters="sRGB">
<feFlood flood-opacity="0" result="BackgroundImageFix"/>
<feColorMatrix in="SourceAlpha" type="matrix" values="0 0 0 0 0 0 0 0 0 0 0 0 0 0 0 0 0 0 127 0" result="hardAlpha"/>
<feOffset dx="-4.27282"/>
<feGaussianBlur stdDeviation="10.682"/>
<feComposite in2="hardAlpha" operator="out"/>
<feColorMatrix type="matrix" values="0 0 0 0 0.244062 0 0 0 0 0.733075 0 0 0 0 0.8875 0 0 0 0.5 0"/>
<feBlend mode="normal" in2="BackgroundImageFix" result="effect1_dropShadow_25_5407"/>
<feBlend mode="normal" in="SourceGraphic" in2="effect1_dropShadow_25_5407" result="shape"/>
</filter>
<filter id="filter1_d_25_5407" x="7.68194" y="11.9538" width="41.1889" height="41.1916" filterUnits="userSpaceOnUse" color-interpolation-filters="sRGB">
<feFlood flood-opacity="0" result="BackgroundImageFix"/>
<feColorMatrix in="SourceAlpha" type="matrix" values="0 0 0 0 0 0 0 0 0 0 0 0 0 0 0 0 0 0 127 0" result="hardAlpha"/>
<feOffset dx="-5.34102" dy="-1.0682"/>
<feGaussianBlur stdDeviation="4.27282"/>
<feComposite in2="hardAlpha" operator="out"/>
<feColorMatrix type="matrix" values="0 0 0 0 0.0794792 0 0 0 0 0.709408 0 0 0 0 0.908333 0 0 0 0.6 0"/>
<feBlend mode="normal" in2="BackgroundImageFix" result="effect1_dropShadow_25_5407"/>
<feBlend mode="normal" in="SourceGraphic" in2="effect1_dropShadow_25_5407" result="shape"/>
</filter>
<filter id="filter2_d_25_5407" x="-7.40572" y="-0.996243" width="58.7721" height="58.7697" filterUnits="userSpaceOnUse" color-interpolation-filters="sRGB">
<feFlood flood-opacity="0" result="BackgroundImageFix"/>
<feColorMatrix in="SourceAlpha" type="matrix" values="0 0 0 0 0 0 0 0 0 0 0 0 0 0 0 0 0 0 127 0" result="hardAlpha"/>
<feOffset dx="-4.27282" dy="2.13641"/>
<feGaussianBlur stdDeviation="10.682"/>
<feComposite in2="hardAlpha" operator="out"/>
<feColorMatrix type="matrix" values="0 0 0 0 0.144097 0 0 0 0 0.691667 0 0 0 0 0.658813 0 0 0 1 0"/>
<feBlend mode="normal" in2="BackgroundImageFix" result="effect1_dropShadow_25_5407"/>
<feBlend mode="normal" in="SourceGraphic" in2="effect1_dropShadow_25_5407" result="shape"/>
</filter>
<linearGradient id="paint0_linear_25_5407" x1="20.0299" y1="29.9997" x2="41.394" y2="39.0795" gradientUnits="userSpaceOnUse">
<stop stop-color="#3BB2DD"/>
<stop offset="0.484533" stop-color="#7BF7E0"/>
<stop offset="1" stop-color="#DAFFF5"/>
</linearGradient>
<linearGradient id="paint1_linear_25_5407" x1="41.9279" y1="37.4771" x2="36.5843" y2="23.0573" gradientUnits="userSpaceOnUse">
<stop stop-color="#3BB2DD"/>
<stop offset="0.484533" stop-color="#7BF7E0"/>
<stop offset="1" stop-color="#DAFFF5"/>
</linearGradient>
<linearGradient id="paint2_linear_25_5407" x1="24.8367" y1="23.0565" x2="27.3883" y2="33.4169" gradientUnits="userSpaceOnUse">
<stop stop-color="#3BB2DD"/>
<stop offset="0.484533" stop-color="#7BF7E0"/>
<stop offset="1" stop-color="#DAFFF5"/>
</linearGradient>
<clipPath id="clip0_25_5407">
<rect width="60" height="60" fill="white"/>
</clipPath>
</defs>
</svg>
