<svg width="60" height="60" viewBox="0 0 60 60" fill="none" xmlns="http://www.w3.org/2000/svg">
<g clip-path="url(#clip0_25_5414)">
<path d="M30 40.7334V35.2334" stroke="url(#paint0_linear_25_5414)" stroke-width="2" stroke-linecap="round" stroke-linejoin="round"/>
<g filter="url(#filter0_d_25_5414)">
<path d="M26.3333 44.4H13.5" stroke="url(#paint1_linear_25_5414)" stroke-width="2" stroke-linecap="round" stroke-linejoin="round" shape-rendering="crispEdges"/>
</g>
<path d="M33.6667 44.4H46.5001" stroke="url(#paint2_linear_25_5414)" stroke-width="2" stroke-linecap="round" stroke-linejoin="round"/>
<g filter="url(#filter1_d_25_5414)">
<path d="M33.6666 44.4001C33.6666 46.4251 32.0249 48.0667 29.9999 48.0667C27.9749 48.0667 26.3333 46.4251 26.3333 44.4001C26.3333 42.3751 27.9749 40.7334 29.9999 40.7334C32.0249 40.7334 33.6666 42.3751 33.6666 44.4001Z" fill="url(#paint3_linear_25_5414)" shape-rendering="crispEdges"/>
</g>
<g filter="url(#filter2_d_25_5414)">
<path fill-rule="evenodd" clip-rule="evenodd" d="M30 9.93335C22.6086 9.93335 16.6167 15.9253 16.6167 23.3167C16.6167 30.7081 22.6086 36.7 30 36.7C37.3914 36.7 43.3834 30.7081 43.3834 23.3167C43.3834 15.9253 37.3914 9.93335 30 9.93335ZM30 33.7667C24.7264 33.7667 20.3652 29.8603 19.6521 24.7833H28.8303V23.6364C28.8303 23.0642 29.2941 22.6004 29.8663 22.6004C30.4305 22.6004 30.9244 22.2998 31.1967 21.85H27.9301C27.7518 21.9953 27.5242 22.0824 27.2762 22.0824C27.0283 22.0824 26.8007 21.9953 26.6224 21.85H19.6521C20.3652 16.773 24.7264 12.8667 30 12.8667C35.2736 12.8667 39.6348 16.773 40.3479 21.85H33.4031C33.1137 23.1289 32.1483 24.1514 30.9024 24.5223V24.7833H40.3479C39.6348 29.8603 35.2736 33.7667 30 33.7667Z" fill="url(#paint4_linear_25_5414)" shape-rendering="crispEdges"/>
</g>
<g filter="url(#filter3_d_25_5414)">
<path fill-rule="evenodd" clip-rule="evenodd" d="M35.9713 29.4716C34.409 31.034 32.2506 32.0003 29.8665 32.0003C27.4824 32.0003 25.324 31.034 23.7616 29.4716C22.1993 27.9092 21.2329 25.7508 21.2329 23.3667C21.2329 20.9827 22.1993 18.8243 23.7616 17.2619C25.324 15.6995 27.4824 14.7332 29.8665 14.7332C32.2506 14.7332 34.409 15.6995 35.9713 17.2619C37.5337 18.8243 38.5001 20.9827 38.5001 23.3667C38.5001 25.7508 37.5337 27.9092 35.9713 29.4716ZM29.8663 17.4203C27.8637 17.4203 26.2402 19.0437 26.2402 21.0464C26.2402 21.6186 26.704 22.0824 27.2762 22.0824C27.8484 22.0824 28.3122 21.6186 28.3122 21.0464C28.3122 20.1881 29.008 19.4923 29.8663 19.4923C30.7246 19.4923 31.4203 20.1881 31.4203 21.0464C31.4203 21.9046 30.7246 22.6004 29.8663 22.6004C29.2941 22.6004 28.8303 23.0643 28.8303 23.6364V25.3632C28.8303 25.9353 29.2941 26.3992 29.8663 26.3992C30.4385 26.3992 30.9023 25.9353 30.9023 25.3632V24.5223C32.4002 24.0765 33.4924 22.689 33.4924 21.0464C33.4924 19.0437 31.8689 17.4203 29.8663 17.4203ZM30.9455 28.1691C30.9455 28.7651 30.4623 29.2483 29.8663 29.2483C29.2703 29.2483 28.7871 28.7651 28.7871 28.1691C28.7871 27.5731 29.2703 27.0899 29.8663 27.0899C30.4623 27.0899 30.9455 27.5731 30.9455 28.1691Z" fill="url(#paint5_linear_25_5414)" shape-rendering="crispEdges"/>
</g>
</g>
<defs>
<filter id="filter0_d_25_5414" x="6.5" y="39.4" width="22.8333" height="10" filterUnits="userSpaceOnUse" color-interpolation-filters="sRGB">
<feFlood flood-opacity="0" result="BackgroundImageFix"/>
<feColorMatrix in="SourceAlpha" type="matrix" values="0 0 0 0 0 0 0 0 0 0 0 0 0 0 0 0 0 0 127 0" result="hardAlpha"/>
<feOffset dx="-2"/>
<feGaussianBlur stdDeviation="2"/>
<feComposite in2="hardAlpha" operator="out"/>
<feColorMatrix type="matrix" values="0 0 0 0 0.253906 0 0 0 0 0.778984 0 0 0 0 0.8125 0 0 0 0.6 0"/>
<feBlend mode="normal" in2="BackgroundImageFix" result="effect1_dropShadow_25_5414"/>
<feBlend mode="normal" in="SourceGraphic" in2="effect1_dropShadow_25_5414" result="shape"/>
</filter>
<filter id="filter1_d_25_5414" x="19.3333" y="36.7334" width="15.3333" height="15.3334" filterUnits="userSpaceOnUse" color-interpolation-filters="sRGB">
<feFlood flood-opacity="0" result="BackgroundImageFix"/>
<feColorMatrix in="SourceAlpha" type="matrix" values="0 0 0 0 0 0 0 0 0 0 0 0 0 0 0 0 0 0 127 0" result="hardAlpha"/>
<feOffset dx="-3"/>
<feGaussianBlur stdDeviation="2"/>
<feComposite in2="hardAlpha" operator="out"/>
<feColorMatrix type="matrix" values="0 0 0 0 0 0 0 0 0 0.407843 0 0 0 0 0.870588 0 0 0 0.5 0"/>
<feBlend mode="normal" in2="BackgroundImageFix" result="effect1_dropShadow_25_5414"/>
<feBlend mode="normal" in="SourceGraphic" in2="effect1_dropShadow_25_5414" result="shape"/>
</filter>
<filter id="filter2_d_25_5414" x="6.6167" y="1.93335" width="42.7666" height="42.7667" filterUnits="userSpaceOnUse" color-interpolation-filters="sRGB">
<feFlood flood-opacity="0" result="BackgroundImageFix"/>
<feColorMatrix in="SourceAlpha" type="matrix" values="0 0 0 0 0 0 0 0 0 0 0 0 0 0 0 0 0 0 127 0" result="hardAlpha"/>
<feOffset dx="-2"/>
<feGaussianBlur stdDeviation="4"/>
<feComposite in2="hardAlpha" operator="out"/>
<feColorMatrix type="matrix" values="0 0 0 0 0.172622 0 0 0 0 0.679167 0 0 0 0 0.618381 0 0 0 0.6 0"/>
<feBlend mode="normal" in2="BackgroundImageFix" result="effect1_dropShadow_25_5414"/>
<feBlend mode="normal" in="SourceGraphic" in2="effect1_dropShadow_25_5414" result="shape"/>
</filter>
<filter id="filter3_d_25_5414" x="-2.76709" y="-5.26685" width="57.2671" height="57.2672" filterUnits="userSpaceOnUse" color-interpolation-filters="sRGB">
<feFlood flood-opacity="0" result="BackgroundImageFix"/>
<feColorMatrix in="SourceAlpha" type="matrix" values="0 0 0 0 0 0 0 0 0 0 0 0 0 0 0 0 0 0 127 0" result="hardAlpha"/>
<feOffset dx="-4"/>
<feGaussianBlur stdDeviation="10"/>
<feComposite in2="hardAlpha" operator="out"/>
<feColorMatrix type="matrix" values="0 0 0 0 0 0 0 0 0 0.407843 0 0 0 0 0.870588 0 0 0 1 0"/>
<feBlend mode="normal" in2="BackgroundImageFix" result="effect1_dropShadow_25_5414"/>
<feBlend mode="normal" in="SourceGraphic" in2="effect1_dropShadow_25_5414" result="shape"/>
</filter>
<linearGradient id="paint0_linear_25_5414" x1="31" y1="47.3334" x2="35.7432" y2="43.7672" gradientUnits="userSpaceOnUse">
<stop stop-color="#C5FFFB" stop-opacity="0.943701"/>
<stop offset="0.501119" stop-color="#5AE0FF"/>
<stop offset="1" stop-color="#005BCE"/>
</linearGradient>
<linearGradient id="paint1_linear_25_5414" x1="27.8" y1="44.4" x2="27.034" y2="47.8717" gradientUnits="userSpaceOnUse">
<stop stop-color="#C5FFFB" stop-opacity="0.943701"/>
<stop offset="0.501119" stop-color="#5AE0FF"/>
<stop offset="1" stop-color="#005BCE"/>
</linearGradient>
<linearGradient id="paint2_linear_25_5414" x1="52.0001" y1="44.4" x2="51.1149" y2="48.4117" gradientUnits="userSpaceOnUse">
<stop stop-color="#C5FFFB" stop-opacity="0.943701"/>
<stop offset="0.501119" stop-color="#5AE0FF"/>
<stop offset="1" stop-color="#005BCE"/>
</linearGradient>
<linearGradient id="paint3_linear_25_5414" x1="32.9413" y1="42.1229" x2="26.3333" y2="44.8684" gradientUnits="userSpaceOnUse">
<stop stop-color="#C5FFFB" stop-opacity="0.943701"/>
<stop offset="0.501119" stop-color="#5AE0FF"/>
<stop offset="1" stop-color="#005BCE"/>
</linearGradient>
<linearGradient id="paint4_linear_25_5414" x1="40.7362" y1="15.0051" x2="16.6167" y2="25.026" gradientUnits="userSpaceOnUse">
<stop stop-color="#C5FFFB" stop-opacity="0.943701"/>
<stop offset="0.501119" stop-color="#5AE0FF"/>
<stop offset="1" stop-color="#005BCE"/>
</linearGradient>
<linearGradient id="paint5_linear_25_5414" x1="30.5572" y1="34.3912" x2="37.2938" y2="14.7995" gradientUnits="userSpaceOnUse">
<stop stop-color="#C5FFFB" stop-opacity="0.943701"/>
<stop offset="0.501119" stop-color="#5AE0FF"/>
<stop offset="1" stop-color="#005BCE"/>
</linearGradient>
<clipPath id="clip0_25_5414">
<rect width="60" height="60" fill="white"/>
</clipPath>
</defs>
</svg>
