<svg width="16" height="16" viewBox="0 0 16 16" fill="none" xmlns="http://www.w3.org/2000/svg">
<g id="Frame" clip-path="url(#clip0_14_6640)">
<path id="Vector" d="M14.72 10H13.04V7.68C13.04 7.36 12.8 7.2 12.56 7.2H8.48V6H10C10.32 6 10.48 5.76 10.48 5.52V1.28C10.48 0.960003 10.24 0.800003 10 0.800003H5.92C5.6 0.800003 5.44 1.04 5.44 1.28V5.44C5.44 5.76 5.68 5.92 5.92 5.92H7.44V7.2H3.44C3.2 7.2 2.96 7.36 2.96 7.68V10H1.36C1.04 10 0.799999 10.24 0.799999 10.48V14.64C0.799999 14.96 1.04 15.2 1.28 15.2H5.36C5.6 15.2 5.84 14.96 5.84 14.72V10.56C5.84 10.24 5.6 10.08 5.36 10.08H3.92V8.16H12V9.92H10.56C10.24 9.92 10.08 10.16 10.08 10.4V14.56C10.08 14.88 10.32 15.12 10.56 15.12H14.64C14.96 15.12 15.12 14.8 15.12 14.56V10.4C15.2 10.24 14.96 10 14.72 10ZM6.4 1.84H9.52V5.04H6.4V1.84ZM4.88 14.16H1.76V10.96H4.8L4.88 14.16ZM14.24 14.16H11.12V10.96H14.24V14.16Z" fill="url(#paint0_linear_14_6640)"/>
<path id="Vector_2" d="M14.72 15.2H10.64C10.32 15.2 10.08 14.96 10.08 14.64V10.48C10.08 10.16 10.32 9.92 10.64 9.92H12V8.24H4V9.92H5.44C5.76 9.92 6 10.16 6 10.48V14.64C6 14.96 5.76 15.2 5.44 15.2H1.28C0.959999 15.2 0.799999 14.96 0.799999 14.72V10.56C0.799999 10.24 1.04 10 1.36 10H2.96V7.68C2.96 7.36 3.2 7.12 3.52 7.12H7.52V6.08H5.92C5.6 6.08 5.36 5.84 5.36 5.52V1.28C5.36 1.04 5.6 0.800003 5.92 0.800003H10C10.32 0.800003 10.56 1.04 10.56 1.36V5.52C10.56 5.84 10.32 6.08 10 6.08H8.48V7.12H12.56C12.88 7.12 13.12 7.36 13.12 7.68V9.92H14.72C15.04 9.92 15.28 10.16 15.28 10.48V14.64C15.2 14.96 15.04 15.2 14.72 15.2ZM10.56 10C10.32 10 10.08 10.24 10.08 10.48V14.64C10.08 14.88 10.32 15.12 10.56 15.12H14.64C14.88 15.12 15.12 14.88 15.12 14.64V10.48C15.12 10.24 14.88 10 14.64 10H12.96V7.68C13.04 7.44 12.8 7.2 12.56 7.2H8.4V6H10C10.24 6 10.48 5.76 10.48 5.52V1.28C10.4 1.04 10.24 0.800003 10 0.800003H5.92C5.68 0.800003 5.44 1.04 5.44 1.28V5.44C5.44 5.68 5.68 5.92 5.92 5.92H7.52V7.2H3.44C3.2 7.2 2.96 7.44 2.96 7.68V10H1.28C1.04 10 0.799999 10.24 0.799999 10.48V14.64C0.799999 14.96 1.04 15.2 1.28 15.2H5.36C5.6 15.2 5.84 14.96 5.84 14.72V10.56C5.84 10.32 5.6 10.08 5.36 10.08H3.92V8.16H12.08V10H10.56ZM14.24 14.24H11.12V10.96H14.24V14.24ZM11.2 14.16H14.24V11.04H11.2V14.16ZM4.88 14.24H1.76V10.96H4.88V14.24ZM1.84 14.16H4.88V11.04H1.84V14.16ZM9.52 5.04H6.4V1.76H9.52V5.04ZM6.4 4.96H9.44V1.84H6.4V4.96Z" fill="url(#paint1_linear_14_6640)"/>
</g>
<defs>
<linearGradient id="paint0_linear_14_6640" x1="7.96784" y1="0.800003" x2="7.96784" y2="15.2" gradientUnits="userSpaceOnUse">
<stop stop-color="#0A84FF"/>
<stop offset="1" stop-color="#64D2FF"/>
</linearGradient>
<linearGradient id="paint1_linear_14_6640" x1="8.04" y1="0.800003" x2="8.04" y2="15.2" gradientUnits="userSpaceOnUse">
<stop stop-color="#0A84FF"/>
<stop offset="1" stop-color="#64D2FF"/>
</linearGradient>
<clipPath id="clip0_14_6640">
<rect width="16" height="16" fill="white"/>
</clipPath>
</defs>
</svg>
