<svg width="16" height="16" viewBox="0 0 16 16" fill="none" xmlns="http://www.w3.org/2000/svg">
<g id="Frame" clip-path="url(#clip0_13_6595)">
<path id="Vector" d="M3.90957 15.6522C3.78149 15.655 3.65713 15.609 3.56174 15.5235L0.58087 12.5496C0.495352 12.4542 0.449339 12.3298 0.452174 12.2017C0.448627 12.0735 0.494734 11.9489 0.58087 11.8539L3.55826 8.87652C3.65365 8.791 3.77801 8.74498 3.90609 8.74782C4.03405 8.74568 4.15816 8.7916 4.25391 8.87652L5.12 9.81217C5.12935 9.82331 5.14107 9.83222 5.15431 9.83824C5.16756 9.84426 5.18198 9.84723 5.19652 9.84695C5.22185 9.84726 5.24648 9.83864 5.26609 9.8226L5.98957 9.20347C6.01072 9.18349 6.0232 9.15602 6.02435 9.12695C6.02442 9.11276 6.02169 9.0987 6.01632 9.08557C6.01095 9.07244 6.00304 9.0605 5.99304 9.05043L2.38609 5.42956C2.30117 5.33381 2.25525 5.2097 2.25739 5.08173C2.25384 4.95354 2.29995 4.82892 2.38609 4.73391L4.82087 2.29912C4.91588 2.21299 5.0405 2.16688 5.1687 2.17043C5.23229 2.16793 5.29575 2.17801 5.35544 2.2001C5.41513 2.22218 5.46987 2.25584 5.51652 2.29912L8.91826 6.01391C8.92723 6.0246 8.9384 6.03324 8.951 6.03924C8.9636 6.04524 8.97735 6.04846 8.9913 6.04869C9.00503 6.04913 9.01868 6.04655 9.0313 6.04114C9.04392 6.03574 9.0552 6.02763 9.06435 6.01739L9.82609 5.25565C9.83633 5.2465 9.84444 5.23522 9.84985 5.2226C9.85525 5.20998 9.85783 5.19633 9.85739 5.1826C9.85664 5.15516 9.84544 5.12903 9.82609 5.10956L8.8487 4.17043C8.78805 4.13401 8.7373 4.08324 8.70091 4.02258C8.66451 3.96192 8.6436 3.89325 8.64 3.8226C8.64024 3.75285 8.65825 3.68431 8.69233 3.62345C8.72641 3.56259 8.77543 3.51143 8.83478 3.47478L11.7217 0.483472C11.819 0.401326 11.9422 0.356262 12.0696 0.356262C12.1969 0.356262 12.3201 0.401326 12.4174 0.483472L15.3948 3.46086C15.4816 3.55549 15.5278 3.68037 15.5235 3.80869C15.526 3.87228 15.5159 3.93575 15.4938 3.99543C15.4717 4.05512 15.4381 4.10986 15.3948 4.15652L12.4417 7.13043C12.3467 7.21656 12.2221 7.26267 12.0939 7.25912C11.966 7.26127 11.8418 7.21535 11.7461 7.13043L10.6191 5.85739C10.6095 5.8466 10.5977 5.83794 10.5845 5.83195C10.5714 5.82596 10.5571 5.82278 10.5426 5.8226C10.5262 5.82461 10.5105 5.83077 10.4971 5.84051C10.4837 5.85025 10.4731 5.86324 10.4661 5.87825L9.98261 6.72695C9.9708 6.74668 9.96609 6.76985 9.96925 6.79262C9.97242 6.81539 9.98326 6.8364 10 6.85217L11.0609 7.91304C11.147 8.00805 11.1931 8.13267 11.1896 8.26086C11.1921 8.32446 11.182 8.38792 11.1599 8.44761C11.1378 8.5073 11.1042 8.56204 11.0609 8.60869L8.62609 11.0435C8.57943 11.0868 8.52469 11.1204 8.465 11.1425C8.40532 11.1646 8.34186 11.1747 8.27826 11.1722C8.15006 11.1757 8.02545 11.1296 7.93043 11.0435L6.85217 9.99999C6.83291 9.98033 6.80665 9.96908 6.77913 9.96869C6.7631 9.96509 6.74647 9.96509 6.73043 9.96869L5.91304 10.4069C5.89782 10.4136 5.88465 10.4242 5.87488 10.4377C5.8651 10.4511 5.85907 10.4669 5.85739 10.4835C5.8553 10.4999 5.85703 10.5167 5.86246 10.5324C5.86789 10.548 5.87687 10.5623 5.8887 10.5739L7.23478 11.8469C7.31966 11.9425 7.3645 12.0671 7.36 12.1948C7.36428 12.3231 7.31808 12.448 7.2313 12.5426L4.25739 15.52C4.16216 15.6062 4.03799 15.6534 3.90957 15.6522ZM3.90957 9.86086C3.89584 9.86042 3.88219 9.863 3.86957 9.86841C3.85695 9.87382 3.84567 9.88193 3.83652 9.89217L1.62435 12.1252C1.61446 12.1346 1.60658 12.146 1.6012 12.1585C1.59582 12.1711 1.59304 12.1846 1.59304 12.1983C1.59304 12.2119 1.59582 12.2254 1.6012 12.238C1.60658 12.2505 1.61446 12.2619 1.62435 12.2713L3.82609 14.4835C3.84764 14.5013 3.87466 14.5111 3.90261 14.5113C3.92952 14.5112 3.95547 14.5013 3.97565 14.4835L6.18435 12.2713C6.19424 12.2619 6.20212 12.2505 6.2075 12.238C6.21288 12.2254 6.21565 12.2119 6.21565 12.1983C6.21565 12.1846 6.21288 12.1711 6.2075 12.1585C6.20212 12.146 6.19424 12.1346 6.18435 12.1252L3.99304 9.89565C3.9839 9.8854 3.97262 9.87729 3.96 9.87189C3.94738 9.86648 3.93372 9.8639 3.92 9.86434L3.90957 9.86086ZM6.95652 5.08521C6.92858 5.08543 6.90156 5.09525 6.88 5.11304L5.2 6.79652C5.18088 6.81602 5.17017 6.84225 5.17017 6.86956C5.17017 6.89687 5.18088 6.9231 5.2 6.9426L8.2087 10.0174C8.21812 10.0273 8.22945 10.0352 8.242 10.0405C8.25456 10.0459 8.26808 10.0487 8.28174 10.0487C8.30674 10.0463 8.33012 10.0352 8.34783 10.0174L10.0174 8.34782C10.0367 8.32773 10.0475 8.30093 10.0475 8.27304C10.0475 8.24515 10.0367 8.21835 10.0174 8.19826L7.01217 5.12347C7.00275 5.11358 6.99142 5.1057 6.97886 5.10032C6.96631 5.09494 6.95279 5.09217 6.93913 5.09217L6.95652 5.08521ZM5.21739 3.28695C5.18995 3.2877 5.16382 3.2989 5.14435 3.31825L3.42957 5.00521C3.41123 5.02512 3.40106 5.05119 3.40106 5.07825C3.40106 5.10532 3.41123 5.13139 3.42957 5.1513L4.38609 6.12521C4.39523 6.13545 4.40651 6.14356 4.41913 6.14897C4.43175 6.15438 4.44541 6.15695 4.45913 6.15652C4.48616 6.15705 4.51235 6.14708 4.53217 6.12869L6.21565 4.44521C6.23477 4.42571 6.24548 4.39948 6.24548 4.37217C6.24548 4.34485 6.23477 4.31863 6.21565 4.29912L5.26261 3.31825C5.24217 3.30038 5.21661 3.28942 5.18957 3.28695H5.21739ZM12.0974 1.49565C12.0837 1.49521 12.07 1.49778 12.0574 1.50319C12.0448 1.5086 12.0335 1.51671 12.0243 1.52695L9.90609 3.72173C9.88775 3.74164 9.87758 3.76771 9.87758 3.79478C9.87758 3.82184 9.88775 3.84791 9.90609 3.86782L11.993 6.10086C12.0023 6.11123 12.0135 6.11965 12.0261 6.12562C12.0386 6.13159 12.0522 6.135 12.0661 6.13565C12.0797 6.13565 12.0933 6.13287 12.1058 6.12749C12.1184 6.12211 12.1297 6.11423 12.1391 6.10434L14.3687 3.87478C14.3786 3.86536 14.3865 3.85402 14.3918 3.84147C14.3972 3.82891 14.4 3.81539 14.4 3.80173C14.4 3.78807 14.3972 3.77455 14.3918 3.762C14.3865 3.74944 14.3786 3.73811 14.3687 3.72869L12.1739 1.52347C12.1524 1.50569 12.1253 1.49586 12.0974 1.49565ZM10.2052 11.7774C10.0881 11.7774 9.9757 11.7308 9.89286 11.648C9.81002 11.5652 9.76348 11.4528 9.76348 11.3356C9.76348 11.2185 9.81002 11.1061 9.89286 11.0233C9.9757 10.9404 10.0881 10.8939 10.2052 10.8939C10.3073 10.8948 10.4086 10.8754 10.5031 10.8368C10.5977 10.7981 10.6835 10.741 10.7558 10.6688C10.828 10.5966 10.8851 10.5107 10.9237 10.4162C10.9624 10.3217 10.9818 10.2204 10.9809 10.1183C10.9809 10.0011 11.0274 9.88874 11.1103 9.8059C11.1931 9.72306 11.3055 9.67651 11.4226 9.67651C11.5398 9.67651 11.6521 9.72306 11.735 9.8059C11.8178 9.88874 11.8643 10.0011 11.8643 10.1183C11.8634 10.558 11.6883 10.9795 11.3774 11.2904C11.0664 11.6014 10.645 11.7765 10.2052 11.7774ZM10.5217 13.6696C10.4633 13.6691 10.4055 13.657 10.3518 13.6339C10.2981 13.6108 10.2496 13.5772 10.2091 13.5351C10.1686 13.4929 10.1369 13.4431 10.1159 13.3886C10.0949 13.334 10.0851 13.2758 10.087 13.2174C10.0944 13.0888 10.1488 12.9675 10.2399 12.8764C10.331 12.7854 10.4523 12.7309 10.5809 12.7235C11.1752 12.7154 11.7429 12.4757 12.1632 12.0554C12.5835 11.6351 12.8232 11.0674 12.8313 10.473C12.8259 10.412 12.8332 10.3504 12.8528 10.2924C12.8725 10.2343 12.904 10.1809 12.9454 10.1357C12.9868 10.0905 13.0371 10.0543 13.0932 10.0296C13.1494 10.0049 13.21 9.99214 13.2713 9.99214C13.3326 9.99214 13.3933 10.0049 13.4494 10.0296C13.5055 10.0543 13.5558 10.0905 13.5972 10.1357C13.6386 10.1809 13.6701 10.2343 13.6898 10.2924C13.7094 10.3504 13.7167 10.412 13.7113 10.473C13.7127 10.8926 13.6312 11.3083 13.4714 11.6963C13.3117 12.0843 13.077 12.4369 12.7806 12.7339C12.4842 13.0309 12.1321 13.2665 11.7445 13.427C11.3568 13.5876 10.9413 13.67 10.5217 13.6696Z" fill="url(#paint0_linear_13_6595)"/>
</g>
<defs>
<linearGradient id="paint0_linear_13_6595" x1="7.98792" y1="0.356262" x2="7.98792" y2="15.6523" gradientUnits="userSpaceOnUse">
<stop stop-color="#0A84FF"/>
<stop offset="1" stop-color="#64D2FF"/>
</linearGradient>
<clipPath id="clip0_13_6595">
<rect width="16" height="16" fill="white"/>
</clipPath>
</defs>
</svg>
