<svg width="40" height="40" viewBox="0 0 40 40" fill="none" xmlns="http://www.w3.org/2000/svg">
<path d="M34.9132 7.098L29.8332 2.018C29.1812 1.332 28.0972 1.306 27.4112 1.958L27.3512 2.018L19.9672 9.404C19.2812 10.056 19.2552 11.14 19.9072 11.826L19.9672 11.886L21.9752 13.894L20.9712 14.898L20.3212 14.248C19.8767 13.8106 19.3501 13.4653 18.7718 13.2319C18.1935 12.9986 17.5748 12.8817 16.9512 12.888C15.3552 11.588 13.2872 11.41 12.1072 12.594C10.9272 13.778 11.1032 15.844 12.4012 17.438C12.3891 18.0624 12.5033 18.6828 12.737 19.2619C12.9707 19.841 13.3191 20.3669 13.7612 20.808L14.4112 21.458L13.4072 22.462L11.3992 20.454C10.7472 19.768 9.6632 19.742 8.9772 20.394L8.9172 20.454L1.5372 27.834C0.851197 28.486 0.825197 29.57 1.4772 30.256L1.5372 30.316L6.6172 35.396C7.2692 36.082 8.3532 36.108 9.0392 35.456L9.0992 35.396L16.4832 28.01C17.1692 27.358 17.1952 26.274 16.5432 25.588L16.4832 25.528L14.7692 23.814L15.7732 22.81L18.0192 25.056C19.3668 22.1324 21.7136 19.7856 24.6372 18.438L22.3912 16.192L23.3952 15.188L25.1092 16.906C25.7612 17.592 26.8452 17.618 27.5312 16.966L27.5912 16.906L34.9752 9.516C35.2886 9.19347 35.4611 8.75966 35.4548 8.30996C35.4484 7.86026 35.2637 7.43151 34.9412 7.118C34.9307 7.1132 34.9212 7.10641 34.9132 7.098Z" fill="white"/>
<path d="M33.2012 19.86C33.0775 19.7432 32.9382 19.6443 32.7872 19.566C32.7552 19.566 32.7292 19.542 32.7272 19.51V19.508C32.6092 19.448 32.5492 19.39 32.4332 19.33H32.3732C29.4772 17.734 24.9872 18.858 21.6792 22.166C18.3092 25.536 17.2492 29.964 18.8432 32.86C18.9032 32.978 18.9612 33.038 19.0212 33.154C19.0212 33.186 19.0452 33.212 19.0772 33.214H19.0792C19.1972 33.392 19.3152 33.508 19.3732 33.628C20.6132 34.456 23.3912 33.392 26.3452 31.028L24.8672 29.846C23.0952 31.264 21.6772 32.032 21.2632 31.678C20.7312 31.146 22.5032 28.488 25.2192 25.77C27.9352 23.052 30.5952 21.28 31.1272 21.814C31.4812 22.168 30.8332 23.41 29.5892 25.004L30.7712 26.482C33.0172 23.646 34.0212 21.046 33.1932 19.864L33.2012 19.86Z" fill="white"/>
<path d="M26.1112 27.778C26.0147 27.7048 25.9336 27.6132 25.8726 27.5085C25.8116 27.4039 25.7719 27.2882 25.7557 27.1682C25.7395 27.0481 25.7472 26.926 25.7784 26.809C25.8095 26.6919 25.8635 26.5821 25.9372 26.486C25.9712 26.44 26.0092 26.4 26.0512 26.362L26.2292 26.184C26.3189 26.0945 26.4253 26.0236 26.5424 25.9752C26.6595 25.9269 26.7849 25.9021 26.9116 25.9023C27.0383 25.9025 27.1637 25.9276 27.2806 25.9763C27.3976 26.025 27.5038 26.0962 27.5932 26.186C27.6112 26.204 27.6292 26.224 27.6472 26.244L29.2432 28.194C29.4218 28.4249 29.5136 28.7112 29.5027 29.0029C29.4917 29.2946 29.3786 29.5732 29.1832 29.79L29.7152 29.258C29.5047 29.4655 29.2242 29.5867 28.9288 29.5978C28.6335 29.6089 28.3447 29.5091 28.1192 29.318L26.1112 27.778Z" fill="white"/>
<path d="M29.9352 28.574C29.5745 28.5804 29.2291 28.721 28.9665 28.9685C28.7039 29.2159 28.543 29.5523 28.5152 29.912C28.5152 30.652 29.1172 31.252 29.8572 31.252C29.8832 31.252 29.9092 31.252 29.9352 31.25C30.6732 31.296 31.3092 30.734 31.3552 29.996C31.4012 29.258 30.8392 28.622 30.1012 28.576C30.0452 28.572 29.9892 28.572 29.9352 28.574Z" fill="white"/>
<path d="M33.4432 28.574C33.4472 29.832 32.9152 31.032 31.9772 31.872C31.5209 32.3224 30.9788 32.6765 30.3831 32.9136C29.7874 33.1506 29.1502 33.2657 28.5092 33.252V35.174C32.2412 35.25 35.3372 32.304 35.4452 28.572H33.4392" fill="white"/>
<path d="M36.9952 28.532C36.9952 32.96 33.1932 36.592 28.5152 36.592V38.514C34.2812 38.514 39.0012 34.044 39.0012 28.528H36.9952" fill="white"/>
</svg>
