<svg width="136" height="40" viewBox="0 0 136 40" fill="none" xmlns="http://www.w3.org/2000/svg">
<mask id="path-1-inside-1_100_1354" fill="white">
<path fill-rule="evenodd" clip-rule="evenodd" d="M8 28V39V40H9H127H128V39V28H127V39H9V28H8Z"/>
</mask>
<path d="M8 28H7V27H8V28ZM8 40V41H7V40H8ZM128 40H129V41H128V40ZM128 28V27H129V28H128ZM127 28H126V27H127V28ZM127 39H128V40H127V39ZM9 39V40H8V39H9ZM9 28V27H10V28H9ZM7 39V28H9V39H7ZM9 39V40H7V39H9ZM8 39H9V41H8V39ZM9 39H127V41H9V39ZM127 39H128V41H127V39ZM127 40V39H129V40H127ZM129 28V39H127V28H129ZM127 27H128V29H127V27ZM126 39V28H128V39H126ZM127 40H9V38H127V40ZM10 28V39H8V28H10ZM8 27H9V29H8V27Z" fill="#1776FF" mask="url(#path-1-inside-1_100_1354)"/>
<g filter="url(#filter0_d_100_1354)">
<mask id="path-3-inside-2_100_1354" fill="white">
<path fill-rule="evenodd" clip-rule="evenodd" d="M8 20V9V8H9H127H128V9V20H127V9H9V20H8Z"/>
</mask>
<path d="M8 20H7V21H8V20ZM8 8V7H7V8H8ZM128 8H129V7H128V8ZM128 20V21H129V20H128ZM127 20H126V21H127V20ZM127 9H128V8H127V9ZM9 9V8H8V9H9ZM9 20V21H10V20H9ZM7 9V20H9V9H7ZM9 9V8H7V9H9ZM8 9H9V7H8V9ZM9 9H127V7H9V9ZM127 9H128V7H127V9ZM127 8V9H129V8H127ZM129 20V9H127V20H129ZM127 21H128V19H127V21ZM126 9V20H128V9H126ZM127 8H9V10H127V8ZM10 20V9H8V20H10ZM8 21H9V19H8V21Z" fill="#1776FF" mask="url(#path-3-inside-2_100_1354)"/>
</g>
<defs>
<filter id="filter0_d_100_1354" x="0" y="0" width="136" height="28" filterUnits="userSpaceOnUse" color-interpolation-filters="sRGB">
<feFlood flood-opacity="0" result="BackgroundImageFix"/>
<feColorMatrix in="SourceAlpha" type="matrix" values="0 0 0 0 0 0 0 0 0 0 0 0 0 0 0 0 0 0 127 0" result="hardAlpha"/>
<feOffset/>
<feGaussianBlur stdDeviation="4"/>
<feColorMatrix type="matrix" values="0 0 0 0 0 0 0 0 0 0.376471 0 0 0 0 1 0 0 0 0.3 0"/>
<feBlend mode="normal" in2="BackgroundImageFix" result="effect1_dropShadow_100_1354"/>
<feBlend mode="normal" in="SourceGraphic" in2="effect1_dropShadow_100_1354" result="shape"/>
</filter>
</defs>
</svg>
