<svg width="110" height="32" viewBox="0 0 110 32" fill="none" xmlns="http://www.w3.org/2000/svg">
<g clip-path="url(#clip0_243_1291)" filter="url(#filter0_i_243_1291)">
<rect width="110" height="32" fill="#0084FF" fill-opacity="0.2"/>
<g filter="url(#filter1_d_243_1291)">
<mask id="path-1-inside-1_243_1291" fill="white">
<path fill-rule="evenodd" clip-rule="evenodd" d="M0 20V31V32H1H109H110V31V20H109V31H1V20H0Z"/>
</mask>
<path d="M0 20H-1V19H0V20ZM0 32V33H-1V32H0ZM110 32H111V33H110V32ZM110 20V19H111V20H110ZM109 20H108V19H109V20ZM109 31H110V32H109V31ZM1 31V32H0V31H1ZM1 20V19H2V20H1ZM-1 31V20H1V31H-1ZM1 31V32H-1V31H1ZM0 31H1V33H0V31ZM1 31H109V33H1V31ZM109 31H110V33H109V31ZM109 32V31H111V32H109ZM111 20V31H109V20H111ZM109 19H110V21H109V19ZM108 31V20H110V31H108ZM109 32H1V30H109V32ZM2 20V31H0V20H2ZM0 19H1V21H0V19Z" fill="#0084FF" mask="url(#path-1-inside-1_243_1291)"/>
</g>
<g filter="url(#filter2_d_243_1291)">
<mask id="path-3-inside-2_243_1291" fill="white">
<path fill-rule="evenodd" clip-rule="evenodd" d="M0 12V1V0H1H109H110V1V12H109V1H1V12H0Z"/>
</mask>
<path d="M0 12H-1V13H0V12ZM0 0V-1H-1V0H0ZM110 0H111V-1H110V0ZM110 12V13H111V12H110ZM109 12H108V13H109V12ZM109 1H110V0H109V1ZM1 1V0H0V1H1ZM1 12V13H2V12H1ZM-1 1V12H1V1H-1ZM1 1V0H-1V1H1ZM0 1H1V-1H0V1ZM1 1H109V-1H1V1ZM109 1H110V-1H109V1ZM109 0V1H111V0H109ZM111 12V1H109V12H111ZM109 13H110V11H109V13ZM108 1V12H110V1H108ZM109 0H1V2H109V0ZM2 12V1H0V12H2ZM0 13H1V11H0V13Z" fill="#0084FF" mask="url(#path-3-inside-2_243_1291)"/>
</g>
<g filter="url(#filter3_dd_243_1291)">
<path fill-rule="evenodd" clip-rule="evenodd" d="M12 31H101V32H12V31Z" fill="url(#paint0_linear_243_1291)"/>
</g>
</g>
<defs>
<filter id="filter0_i_243_1291" x="0" y="0" width="110" height="32" filterUnits="userSpaceOnUse" color-interpolation-filters="sRGB">
<feFlood flood-opacity="0" result="BackgroundImageFix"/>
<feBlend mode="normal" in="SourceGraphic" in2="BackgroundImageFix" result="shape"/>
<feColorMatrix in="SourceAlpha" type="matrix" values="0 0 0 0 0 0 0 0 0 0 0 0 0 0 0 0 0 0 127 0" result="hardAlpha"/>
<feOffset/>
<feGaussianBlur stdDeviation="8"/>
<feComposite in2="hardAlpha" operator="arithmetic" k2="-1" k3="1"/>
<feColorMatrix type="matrix" values="0 0 0 0 0 0 0 0 0 0.517647 0 0 0 0 1 0 0 0 0.25 0"/>
<feBlend mode="normal" in2="shape" result="effect1_innerShadow_243_1291"/>
</filter>
<filter id="filter1_d_243_1291" x="-8" y="12" width="126" height="28" filterUnits="userSpaceOnUse" color-interpolation-filters="sRGB">
<feFlood flood-opacity="0" result="BackgroundImageFix"/>
<feColorMatrix in="SourceAlpha" type="matrix" values="0 0 0 0 0 0 0 0 0 0 0 0 0 0 0 0 0 0 127 0" result="hardAlpha"/>
<feOffset/>
<feGaussianBlur stdDeviation="4"/>
<feColorMatrix type="matrix" values="0 0 0 0 0 0 0 0 0 0.376471 0 0 0 0 1 0 0 0 0.3 0"/>
<feBlend mode="normal" in2="BackgroundImageFix" result="effect1_dropShadow_243_1291"/>
<feBlend mode="normal" in="SourceGraphic" in2="effect1_dropShadow_243_1291" result="shape"/>
</filter>
<filter id="filter2_d_243_1291" x="-8" y="-8" width="126" height="28" filterUnits="userSpaceOnUse" color-interpolation-filters="sRGB">
<feFlood flood-opacity="0" result="BackgroundImageFix"/>
<feColorMatrix in="SourceAlpha" type="matrix" values="0 0 0 0 0 0 0 0 0 0 0 0 0 0 0 0 0 0 127 0" result="hardAlpha"/>
<feOffset/>
<feGaussianBlur stdDeviation="4"/>
<feColorMatrix type="matrix" values="0 0 0 0 0 0 0 0 0 0.376471 0 0 0 0 1 0 0 0 0.3 0"/>
<feBlend mode="normal" in2="BackgroundImageFix" result="effect1_dropShadow_243_1291"/>
<feBlend mode="normal" in="SourceGraphic" in2="effect1_dropShadow_243_1291" result="shape"/>
</filter>
<filter id="filter3_dd_243_1291" x="-6" y="13" width="125" height="37" filterUnits="userSpaceOnUse" color-interpolation-filters="sRGB">
<feFlood flood-opacity="0" result="BackgroundImageFix"/>
<feColorMatrix in="SourceAlpha" type="matrix" values="0 0 0 0 0 0 0 0 0 0 0 0 0 0 0 0 0 0 127 0" result="hardAlpha"/>
<feOffset/>
<feGaussianBlur stdDeviation="9"/>
<feColorMatrix type="matrix" values="0 0 0 0 0 0 0 0 0 0.894118 0 0 0 0 1 0 0 0 1 0"/>
<feBlend mode="normal" in2="BackgroundImageFix" result="effect1_dropShadow_243_1291"/>
<feColorMatrix in="SourceAlpha" type="matrix" values="0 0 0 0 0 0 0 0 0 0 0 0 0 0 0 0 0 0 127 0" result="hardAlpha"/>
<feOffset/>
<feGaussianBlur stdDeviation="9"/>
<feColorMatrix type="matrix" values="0 0 0 0 0 0 0 0 0 0.894118 0 0 0 0 1 0 0 0 1 0"/>
<feBlend mode="normal" in2="effect1_dropShadow_243_1291" result="effect2_dropShadow_243_1291"/>
<feBlend mode="normal" in="SourceGraphic" in2="effect2_dropShadow_243_1291" result="shape"/>
</filter>
<linearGradient id="paint0_linear_243_1291" x1="12" y1="31" x2="101" y2="31" gradientUnits="userSpaceOnUse">
<stop stop-color="#00FFFC" stop-opacity="0"/>
<stop offset="0.362472" stop-color="#00FFFC"/>
<stop offset="0.627189" stop-color="#00FFFC"/>
<stop offset="1" stop-color="#00FFFC" stop-opacity="0"/>
</linearGradient>
<clipPath id="clip0_243_1291">
<rect width="110" height="32" fill="white"/>
</clipPath>
</defs>
</svg>
